<svg xmlns="http://www.w3.org/2000/svg" viewBox="0 0 180 146">
<!-- SVG created with Arrow, by QuiverAI (https://quiver.ai) -->
  <style type="text/css">.cls-0 {fill:none;stroke:#0D41A4;stroke-width:0.82;stroke-linecap:round;stroke-linejoin:round;stroke-miterlimit:10;}
.cls-1 {fill:none;stroke:#0D41A4;stroke-width:0.45;stroke-linecap:round;stroke-linejoin:round;stroke-miterlimit:10;}
.cls-2 {fill:none;stroke:#0D41A4;stroke-width:0.54;stroke-linecap:round;stroke-linejoin:round;stroke-miterlimit:10;}
.cls-3 {fill:none;stroke:#0D41A4;stroke-width:0.41;stroke-linecap:round;stroke-linejoin:round;stroke-miterlimit:10;}
.cls-4 {fill:none;stroke:#0D41A4;stroke-width:0.75;stroke-linecap:round;stroke-linejoin:round;stroke-miterlimit:10;}
.cls-5 {fill:none;stroke:#0D41A4;stroke-width:0.99;stroke-linecap:round;stroke-linejoin:round;stroke-miterlimit:10;}
.cls-6 {fill:#0D41A4;}
.cls-7 {fill:none;stroke:#0D41A4;stroke-width:0.49;stroke-linecap:round;stroke-linejoin:round;stroke-miterlimit:10;}</style>
  <path class="cls-0" d="m104.6 67.4c-4.7 2.5-10.1 4.8-12.1 6.7 2 1.4 5.8-0.9 6.5 2.9l0.5 5.8-3.4 0.8-0.1 1.1 3.3-1.1 0.2 0.6 7.1-4.3"/>
  <path class="cls-0" d="m104.8 67c1.7-0.6 3.9-1.9 4.8-1.5 1.1 0.6 2.3 0.5 3 0.4 1.8 0.4 1.8 4.3 1.8 6.5"/>
  <path class="cls-0" d="m99 74.5 14-8.3"/>
  <path class="cls-0" d="m102.4 80.7 11.5-7.5"/>
  <path class="cls-0" d="m93.5 75c-1-1.1-6.3-1.2-8 1.1l0.4 0.8 1.2-0.2 2.5 0.9 0.9 2.5c-1.4-1.4-3.3-3.2-4.7-2.5-2.8 1.1-5.8 2.3-6 3.1l-0.4 1.5c-0.5 0.7-2.9 0-4 0.3-3.2 0.8-4 4.9-2.6 6.8 0.6 0.7 1.4 1.6 2.3 1.4 3-0.4 4.8 0.9 5.4-1.1 1.1-3.9-2.7-7.8-6.9-6"/>
  <path class="cls-0" d="m81.1 84c0.9-0.9 8.1-4.1 9-4.3"/>
  <path class="cls-0" d="m89.6 77c1.3 0.1 3.9 0.1 4.5-0.3"/>
  <path class="cls-0" d="m89.7 77.6c0.4 0.6 1.2 3.1 1.2 5.2"/>
  <path class="cls-0" d="m94 75c1.7 1.3 1.1 7.8 1.1 9.2l-0.7 0.4"/>
  <path class="cls-0" d="m81.1 90.4c3-1 11.1-5.8 12-5.3"/>
  <path class="cls-0" d="m83.6 90.1c0.3 1.8-1.7 1.8-2 0.6"/>
  <path class="cls-0" d="m85.1 89.4c0.4 1.8 2.4 1 2.4-1"/>
  <path class="cls-0" d="m90.5 86.6 0.2 2.6"/>
  <path class="cls-0" d="m90.5 86.6c1.3-0.9 3.4-1.3 4.1-0.1"/>
  <path class="cls-0" d="m80.9 90.7c0.2 0.8 0 2.7-0.2 3.4-2.7 0-6.5 1.3-8.5 0.5l-1.5-3.7 1.1-2"/>
  <path class="cls-1" d="m71.4 93.4 1.4-2.7"/>
  <path class="cls-1" d="m71.8 90 0.7-0.7"/>
  <path class="cls-1" d="m73.4 94.5 1.7-2.6"/>
  <path class="cls-1" d="m75.9 94.5 1-2.5"/>
  <path class="cls-1" d="m77.8 94.1 1.3-2.2"/>
  <path class="cls-0" d="m75.9 78.6c0.6-0.4 3.9-0.7 3.9 0.4 0 0.9-2.9 0.9-3.9 0.4-0.3 0 0 2 0.2 2.4"/>
  <path class="cls-0" d="m74.7 85.9c-1.1 2.6-0.2 3.8 2 2.8 1.8-0.7 0.9-3.4-0.9-2.8"/>
  <path class="cls-2" d="m84.6 85.9c0 1.1 1.1-1.3 1.1-2-1.1-0.6-1.1 0.7-1.1 2"/>
  <path class="cls-2" d="m88.2 82.6c-0.7 0.7 0.9 3.1 1 1.3 0-0.8-0.5-1.5-1-1.3"/>
  <path class="cls-2" d="m92.8 79.7c-0.7 0.7 0.2 4.7 0.7 2.5 0-1.1 0.2-2.8-0.7-2.5"/>
  <path class="cls-0" d="m95.5 82.8 2.8 0.8"/>
  <path class="cls-2" d="m102.1 74.9c-0.6 1.6 1 2.5 1-0.4-0.3-0.7-0.9-0.4-1 0.4"/>
  <path class="cls-2" d="m104.4 73.1c-0.5 1.5 1.1 2.6 1-0.2-0.4-0.7-1-0.5-1 0.2"/>
  <path class="cls-2" d="m106.6 72c-0.5 1.6 1.1 2.6 0.6-0.3-0.3-0.6-0.6-0.4-0.6 0.3"/>
  <path class="cls-2" d="m109.6 70.4c-0.5 1.6 1.1 2.5 0.6-0.3-0.2-0.6-0.6-0.4-0.6 0.3"/>
  <path class="cls-2" d="m111.5 69.3c-0.4 1.5 1.1 2.4 0.6-0.3-0.2-0.6-0.6-0.4-0.6 0.3"/>
  <path class="cls-0" d="m114.6 68.4 12.9-6.6c3.9-1.9 6.1-3.7 6.4-4.2 4.5-2.2 0.2-6.3-3-9.8-2-1.8-6.8-5.3-6.5-9.7 0.5-3.9 3.4-5.9 5.4-6.8 9.1-4.4 19.7-9.8 26-13.3"/>
  <path class="cls-0" d="m106.9 80.4c10.6-6.6 25.7-13.4 29.9-17 1.8-1.4 3.4-3.8 3.4-3.8 0.7-0.9 0.7-1.2 0.7-1.5 1.5-7.2-1.4-9.7-4.3-12.1-7.1-5.9-7.1-8-0.7-11.6 3-1.9 6.7-3.1 8.5-4 2.8-1.7 8.8-4.8 12-7"/>
  <path class="cls-5" d="m35.9 115.9 35.3-22.1"/>
  <path class="cls-0" d="m40.1 119.2c6.3-2.8 11.8-5.6 18-9.5 4.1-2.8 9-4.3 13.4-7.7 2.2-1.4 7.2-4.6 9.2-7"/>
  <path class="cls-0" d="m81.2 94.4c4.5-3 11.8-5.5 14.9-7.5l10.5-6.3"/>
  <path class="cls-0" d="m96 86.6c1.6 0.4 3.4 1.4 4 2.1"/>
  <path class="cls-0" d="m106.6 80.4c-0.5 4.1 5.3 6.1 10.3 8.7 4.6 2.4 10.5 6.5 15.2 8.8 12.1 5.8 22.5 11.3 35.8 21.3"/>
  <path class="cls-4" d="m102.1 88.4-0.1-2.8"/>
  <path class="cls-0" d="m99.9 90v1.1l2 1.3 2-1 0.1-1.4-1.9-1.6-1.7 1.5 1.7 0.7 1.8-0.6"/>
  <path class="cls-3" d="m101.2 92.9c-0.3 3.6-0.7 12-1 16.7"/>
  <path class="cls-3" d="m103.2 92.6c0.2 4.3 0.9 11.1 2.3 15"/>
  <path class="cls-0" d="m100.4 109.1-3.3-1-1.6 0.5 6.1 3.1 6.5-3.3-1.6-0.8-4.9 2.6"/>
  <path class="cls-0" d="m95.9 111.1 5.6 2.8 6.1-3.4"/>
  <path class="cls-0" d="m92.6 116.5 9 4.4 10-4.7-0.2-0.1-1.5 0.8-8.3 3.6-8.8-3.6-0.4-0.4 0.1 1.6 8.4 4.4"/>
  <path class="cls-0" d="m93 118.4-4.9 5.7-1.5 0.8 3.8 1.7 2.2-1.1c0.8-3.1 5.8-5.3 6 1.4 0 3.1-0.5 4.5-0.6 4.2l4.2 2.5 3.5-1.4v-1.3c-1.7-0.5-1.6-7.9 3.2-8.9 1.6-0.3 4.1 2 4.7 4.4l3.3-2-0.3-1.2c-1.7-1.1-4.5-3.6-5.1-5.1l-9.1 4.3"/>
  <path class="cls-3" d="m97.4 112.4-2.9 4.7"/>
  <path class="cls-3" d="m98.5 113-2.1 4 2.6-0.9"/>
  <path class="cls-3" d="m99.9 113.6-0.9 5.3"/>
  <path class="cls-3" d="m101.2 113.9 0.4 6.2 1-6.2"/>
  <path class="cls-3" d="m104 113.4 0.4 5.8"/>
  <path class="cls-3" d="m105.2 112.5 2.2 5.1-3.3-1.6"/>
  <path class="cls-3" d="m107.4 111.6 2.5 5"/>
  <path class="cls-3" d="m98.5 108.6c1.6-3.1 2.4-12.5 2.6-17"/>
  <path class="cls-3" d="m102.9 100.6 0.7 8.8"/>
  <path class="cls-0" d="m100 131.9 2.2 1.1 3.5-1.6"/>
  <path class="cls-0" d="m111.6 125.5c0.5 0.4 1.8 0.7 2.6 1l-0.1-0.9"/>
  <path class="cls-0" d="m114.1 125.5 2.8-1.4"/>
  <path class="cls-0" d="m90.5 126.5c0.7-1.9 4.1-5.4 6.5-3.9"/>
  <path class="cls-0" d="m109 122c1.6 0 3.6 1.6 4.9 4.1"/>
  <path class="cls-3" d="m102.2 122.5 0.2 10.1"/>
  <path class="cls-0" d="m97.1 108.1c1.8-0.5 2.9-13 3-16.7"/>
  <path class="cls-6" d="m117.9 72.5-3-1.8 0.1-1.5 4.1 2c0.8 0.9 0 1.7-1.2 1.3"/>
  <path class="cls-6" d="m121.9 70.1-4.5-2.6 0.7-0.6 4.5 1.7c1 0.4 0.5 1.9-0.7 1.5"/>
  <path class="cls-6" d="m123.9 66-2.8-0.9 1.1-0.1 2.8 1.6c1.5 0.9 0.9 2-0.1 1.5l-3-2"/>
  <path class="cls-6" d="m127.9 65.6-3.5-2 1.1-0.6 2.6 1.5c1.3 0.4 0.9 1.9-0.2 1.1"/>
  <path class="cls-6" d="m127.9 62.4 1-0.4h0.1l0.5 1.1-0.6 1-2-1 1-0.7z"/>
  <path class="cls-6" d="m132.4 63.9-3.8-1.9 1-0.8 3.5 1.3c1 0.4 0.8 1.6-0.7 1.4"/>
  <path class="cls-6" d="m134.4 61.6-3.3-1.5 1.3-0.7 3.2 1c1 0.1 0.9 1.7-1.2 1.2"/>
  <path class="cls-6" d="m137.2 58.6-3.1-1 0.5-1.1 3.3 0.6c1.5 0.3 0.7 1.8-0.7 1.5"/>
  <path class="cls-6" d="m139.6 55.6h-4.7l0.1-1.2h4.6c1.3 0 1.1 1.2 0 1.2"/>
  <path class="cls-6" d="m134.4 50.7-1.2-1.2 4.9-1.9 1 0.8-4.7 2.3z"/>
  <path class="cls-6" d="m131.1 47.9-1.2-1.3 5-2 1 0.8-4.8 2.5z"/>
  <path class="cls-6" d="m127.9 44-0.5-0.9 4.8-1 0.7 0.8-5 1.1z"/>
  <path class="cls-6" d="m125 41.4-0.1-1.3 6.6-0.9-0.1 1.2-6.4 1z"/>
  <path class="cls-6" d="m125.4 37.4 0.2-1h5.5l0.4 1.1-6.1-0.1z"/>
  <path class="cls-6" d="m126.4 34.1 1-1 4.7 0.8c1.8 0.5 0.5 1.7-0.6 1.5l-5.1-1.3z"/>
  <path class="cls-6" d="m130.1 31.6 0.8-0.5 4.5 1.8-0.3 1.1-5-2.4z"/>
  <path class="cls-6" d="m133.2 29.9 0.9-0.4 3.8 2c0.7 0.7-0.4 2-0.9 1.1l-3.8-2.7z"/>
  <path class="cls-6" d="m135.6 28.9 0.9-0.4 3.5 1.5c1.5 0.9-0.1 1.5-1 1l-3.4-2.1z"/>
  <path class="cls-6" d="m139.1 27.1 1-0.5 3.3 1.8c1.2 0.7 0 1.5-0.8 1l-3.5-2.3z"/>
  <path class="cls-6" d="m142.5 25.4 1-0.4 3.1 1.9c1.3 0.7-0.1 1.2-0.9 0.7l-3.2-2.2z"/>
  <path class="cls-6" d="m145.5 23.9 1-0.5 2.9 1.7c1.6 1 0.6 1.5-0.4 1l-3.5-2.2z"/>
  <path class="cls-6" d="m148.4 22.2 1-0.2 3.7 1.9c1.3 1.1-0.2 1.2-0.9 0.7l-3.8-2.4z"/>
  <path class="cls-6" d="m134.4 51.1-0.5-1.1 4.7-1.6 1.3 1.1-5.5 1.6z"/>
  <path class="cls-6" d="m134.6 51.5 0.5 0.4 5.1-1 0.2-0.4-0.8-0.6-5 1.2v0.4z"/>
  <path class="cls-6" d="m42.6 113.6 4 2 0.9-1.2-4.6-2.3-0.3 1.5z"/>
  <path class="cls-6" d="m46.1 110.2 5.5 2.7 0.5-0.4v-1.3l-5-2.1-1 1.1z"/>
  <path class="cls-6" d="m49.9 107.6 5 2 1-0.1 0.6-1-5.4-2.1-1.2 1.2z"/>
  <path class="cls-6" d="m55.6 103.6 4.9 2h0.4l0.2-1.4-4.5-1.6-1 1z"/>
  <path class="cls-6" d="m60.5 100.4 4.6 1.6 0.5-0.1 0.1-1.4-3.8-1.1-1.4 1z"/>
  <path class="cls-6" d="m66 97 4.1 1.9v0.2l1 0.3 0.9-0.9-0.5-0.9-4.4-1.5-1.1 0.9z"/>
  <path class="cls-6" d="m68.5 95.5 5.6 2 1.9-0.6-0.4-0.9-4.7-1.6-2.4 1.1z"/>
  <path class="cls-7" d="m149.5 21.6 3.1-0.2"/>
  <path class="cls-5" d="m154.4 120.1 6.5 3.5-6.5-3.5 5.2-3"/>
  <path class="cls-5" d="m146.9 116.5 5.7-2.9"/>
  <path class="cls-3" d="m150.1 117.6 5.5-2.4"/>
  <path class="cls-3" d="m143.5 113.9 5.1-2.8"/>
  <path class="cls-3" d="m141.5 112.5c0.6-0.9 3.5-2.5 4.9-3"/>
  <path class="cls-5" d="m138.2 110.9 4.9-3.5"/>
  <path class="cls-3" d="m134.4 107.9 4.6-3.4"/>
  <path class="cls-3" d="m133.2 106.4 4.7-3"/>
  <path class="cls-5" d="m129.1 104 5.3-3.4"/>
  <path class="cls-3" d="m126.6 102.6c1.3-1.4 3.3-2.4 5.6-3.4"/>
  <path class="cls-3" d="m122.6 100.1 5-3.2"/>
  <path class="cls-5" d="m121.1 98.6 2.9-2.1"/>
  <path class="cls-5" d="m117.4 96.9 6.1-3.5"/>
  <path class="cls-3" d="m116.4 96.1 5.1-3"/>
  <path class="cls-3" d="m112.9 94.2 6.2-3.1"/>
  <path class="cls-3" d="m111.6 93.4 5.3-2.8"/>
  <path class="cls-3" d="m108.1 91.4 5.3-2.8"/>
  <path class="cls-3" d="m106.9 91.1 5.6-2.7"/>
  <path class="cls-3" d="m104.4 88.5 5.2-2"/>
  <path class="cls-6" d="m168.5 3.4 1 5.5 2.4-1.3 0.3 0.3-2 2.5 5.5 1.2 0.2 0.8-5.8 0.2-1.5 7.9h-0.5l-1.1-6.4-1.8 2-0.1-0.1 1.4-2.6-5-0.9v-0.9l5-1-1.3-2.2 0.3-0.3 2 1 0.7-5.6 0.3-0.1zm0 2.5-0.9 4.2 1.8 0.3-0.9-4.5zm1.6 5.2 2.8 0.5-2.9-0.7 0.1 0.2zm-2.7 0-2.5 0.4h2.5v-0.4zm0.6 0.4h1.5v-0.4l-1.4-0.2-0.1 0.6zm0.1 1.6h1.3l0.1-0.7h-1.4v0.7zm-1.1-0.6 0.5 4.1 0.5-3.5h-1zm2.5 0.9 1.1 1.2-0.6-2-0.5 0.8z"/>
  <path class="cls-6" d="m167.2 0.2 1.8 1.8v-1.8h0.5v2.9l-0.5-0.1-1.4-1.6v1.6h-0.4v-2.8z"/>
  <path class="cls-6" d="m156.9 13.5 1-2.6 0.7 2.1 0.9-2.4h1l-1 3.3h-0.5l-0.6-1.4-0.8 1.4h-0.4l-0.3-3h0.2l0.5 2.6h-0.7z"/>
  <path class="cls-6" d="m167.9 22.1c0.6-0.1 1.2 0 1.2 0.8l-0.7-0.3c-1-0.1 0 0.9 0.5 1 0.7 0.3 0.7 1.5 0 1.5-0.8 0.3-1.9-0.1-1.7-1.1 0.5 0.4 1.4 0.9 1.8 0.1 0.5-1-2-0.6-1.4-1.7l0.3-0.3z"/>
  <path class="cls-6" d="m176.5 10.1h1.6v0.5h-1.5v0.8l1.5 0.2v0.4h-1.5v0.9l1.3 0.1v0.6h-1.3c-0.5 0-0.2-3-0.1-3.5"/>
  <path class="cls-7" d="m43.9 24c3.2 2 13.3 5.1 13.2 8.1v1.3c-6.7 5.6 2.4 7 10.8 11.5 2.6 1-1.8-1.5-4.7-2.5-5.1-2.5-9.3-4.5-6.3-7.9"/>
  <path class="cls-7" d="m46.1 23.5c5 2.5 10.5 4.4 12.6 6.4 3.4 2.5 4.7 0.5 7.9 0.6 2.1 0 3 0.5 4.9 1.5"/>
  <path class="cls-7" d="m59.5 31.6c1.6 1 2.4 0.8 3.5 0.4 2.6-0.9 4.4-1.1 8.1 1.1"/>
  <path class="cls-7" d="m57.4 36.4c0.8 1.1 7.1 4.3 9.5 5.6"/>
  <path class="cls-0" d="m15.4 35.2c1.1-1.1 5.5-2.1 4.7 0.7-1.2 3.2-3.7 2.6-4.2 5.1 0 1.9 1.7 2 2.5 3 2.1 1.9 3.1 0 3-2.5-0.2-3.4 2-4.6 2.2-4.4 1-1 2.1-2.7 3.3-1.6 0.7 0.6 1.7 1.1 0.5 2.4-1 0.7-1.8 0.7-2.7 0.1"/>
  <path class="cls-0" d="m16.9 36.6c-1.9-0.5-3.4 0.9-2.4 1.9-1.6 0.9-1 3.6 0.5 2.5"/>
  <path class="cls-0" d="m21.1 46.1c1.8-0.7 1.5-4 4-4.5 1.8-0.2 2.3 1.9 3.1 1 0.8-0.5 0.2-1.6-0.2-1.7 0.7-0.3-0.4-1.5 0.9-2.4 1.5-0.9 3 1 1.5 2.9 2.6 1.6-0.8 4.1-2 3.2"/>
  <path class="cls-0" d="m13 45.5c0.7-1.4-1.1-2.9-2.9 0-0.9 1.9 0.8 1.6 0.8 2 0.3 2.4 2.7 1.5 2.5 0.6-1.8-2.1 3.2-4.2 3.5-1.1 0 2.1-3.9 3.9-3.9 7.9"/>
  <path class="cls-0" d="m15.4 53.1c-2.3 2.3 0.2 4.5-1 5-1.3 0.6-0.4 1.8-2 1.4-1 0-2.5 1.9-2.9 0.4-0.4 0-1 0.6-0.8 2.2"/>
  <path class="cls-0" d="m9.6 59.9 2.5-1.4c1.9-0.4 0.9-3-1.9-0.9 0.7-2.6 1.9-2.2 2.3-1.5"/>
  <path class="cls-7" d="m22.5 44.6c0.9 1.5 0.7 3.3-1.4 4-0.6 0.5-2 1.8-2 2.5"/>
  <path class="cls-7" d="m21.6 49.6c-1.5 0.5-3.4 3.4-3.4 4.8"/>
  <path class="cls-0" d="m18.7 55c1.4-0.6 0.9 2.4 2.8 1.1"/>
  <path class="cls-0" d="m22 56c0.6-1-1.1-1.6-1.6-1-1.4 0.4-1.3-0.6-0.9-1.9"/>
  <path class="cls-7" d="m18.7 53.5c1.7 0.4 0.7 1.5 0.4 1.6"/>
  <path class="cls-0" d="m20.1 55.9c0.3 1.1 2.3 1.5 2.3 3 0 1.2-1.5 2.2-1.8 2.1-1.2-0.3-3.4 1.6-1.7 2.1"/>
  <path class="cls-0" d="m13.1 62.4c2.8 0 4.9-2.5 4.5-4.4-0.5-1.5-1.7-0.5-1 1.9"/>
  <path class="cls-7" d="m15.6 61.4c1 0 1.3-1.3 2.6-2.5 1.9-1 4 0.2 2.4 1.5"/>
  <path class="cls-0" d="m23.5 57.5c1.1-0.6 1.6-1.4 1.9 0.1"/>
  <path class="cls-0" d="m21.6 49.6c1.4-1 1-0.2 1.4 0.3 2 0.5 2.5-0.5 2.9-1.3 1-0.5 1-2 0-2"/>
  <path class="cls-0" d="m111.6 25.6c-2.4 0.8-2.5-3.5-0.2-3.7 0.7 0 1.2 1.5 1.2 0.7 0-1.1 2.1-2.6 1.5-2.7-3.1 0-0.9-3.4 1-3.4l1.3 0.6c1-0.7 1.7-2 3.6-1.2 3.1 1.2-1 4.6-0.6 6l1.5-0.8c1.7-1 3.5 0.9 1.5 2.5 0.6 0.8 0.2 1.9-0.9 2.4 0 1.9-2.1 2-1.9 0.1l-2.2 1.4"/>
  <path class="cls-7" d="m118.2 19.1c-0.7 3-4.6 3.3-3 5.9 0.7 1.5-0.2 2.1-1.1 2.9"/>
  <path class="cls-7" d="m112 24.4c-0.1 0.6 1.9 1.7 2.1 3.2 0 1.8-1.7 3-0.5 5.8"/>
  <path class="cls-0" d="m111.4 33c2.2-4.1 3.2-6.4 3.5-6.4"/>
  <path class="cls-0" d="m118 24.6c-1.5 1.3-0.6 1.9-2.9 3.4-3.2 2.4-1.6 5.4-1.7 5.4"/>
  <path class="cls-0" d="m114.1 38c0-0.5 2.4-1.4 2.5-0.4"/>
  <path class="cls-0" d="m113.1 41.6c-1.6 0.8-1.5-1.1-0.1-1"/>
  <path class="cls-0" d="m119 36.9c0.5 3.2-4.9 4.6-3 8.7 2.2 3.9 1.4 4.5 0.1 6.3-1.7 2.6-2.5 4-5.2 4.5-6 1.2-10.9 6.7-9.5 9.2 1.1 0.9 0.2-1 0.7-1.7l1.5-2.3c2.3-1.7 2.9-3.1 5.4-3.6"/>
  <path class="cls-7" d="m109 45.6c-0.8-1-3.6 0.8-3.1 2"/>
  <path class="cls-0" d="m102.9 54.5c1.2 1.1 0 1.5-1.5 2.6-1.4 1.3-1.4 2.9-1.4 2.9"/>
  <path class="cls-7" d="m102.1 51c-1.2 0.6-0.6 1.5-0.1 1.5"/>
  <path class="cls-0" d="m103.5 54.4c0.9-2.3 2.5-1.4 2.2-0.3"/>
  <path class="cls-7" d="m110.9 54.5c0-0.5 1-0.6 1.2-1.1"/>
  <path class="cls-0" d="m116 45.9c3.4-2.4 6.1-3.5 4.9-5.3"/>
  <path class="cls-0" d="m115.2 48.9c-1.6-0.2-1.8-0.5-2.7 0.6-1.4 1.1-3-1.5 0-2.5-1.4-1.6 2-3 1.6-1.1"/>
  <path class="cls-7" d="m121.9 38.1c1.5-1.2 1.7 0 1 0.8-1.3 2 1.1 2.7 1.5 1"/>
  <path class="cls-0" d="m115.4 55.1c2.7 0.8 6.2-5 7.2-3.5 0.5 0.8-1.5 2.5-2.2 2.3"/>
  <path class="cls-0" d="m115.9 55c2.7 0.1 2.2-2.6 3-4 1-2.3 3.7-3.1 4-5.4 0.5-2.5-4.3 1.9-4 3.9"/>
  <path class="cls-7" d="m44.1 52.6c-0.9-1.6 1.4-3.2 3.5-0.5"/>
  <path class="cls-0" d="m44.9 54.1c2 0.8 0 4.4 5 4.5 1.6 0 2.1 2.5 2.6 3.4 1.4 2.5 4.9 3.4 7.5 4 3 1.6 3.9 4.6 3.5 8.6 1 0.8 2-7.1-3.9-9-1.5 0.3-5.1-2.6-4.9-4.1-3.1-2.4 0.4-7.1 2.5-6.6 1.9 0.5-1.1 2.1-1.3 2.5l-1.3 1.2"/>
  <path class="cls-0" d="m50.9 55.6c0.6-1-1.3-3.5 0.5-4.5 1.1-0.2 2.2 1.5 2 2"/>
  <path class="cls-0" d="m54.5 52.1c0.4-1.7 2-3.7 3.1-2.1 2 3.6 0.3 3.1 0.9 3"/>
  <path class="cls-0" d="m68 56.6c-3 1.8-4.4-2.2 1.5-5.6 1.1-0.4 1.1-0.5 1.9-1.1 0.8-0.9 2.5-2.8 3.6-2 1.9 0.6 4.1-2 5.5 2.1"/>
  <path class="cls-7" d="m71.6 54.1c-2.5 2.3-3.5 4.5-3 8 0.8 4.9 1.4 4.9 1 7"/>
  <path class="cls-7" d="m70.9 67c-0.8-1.1 1.5-8.1 4.1-10.5"/>
  <path class="cls-7" d="m74.1 58.6c-0.7 0.9 0.4 3.4-1.7 6.5"/>
  <path class="cls-0" d="m79.5 55.4c2-0.8 1.9 0.6 1.5 2.6-1.9 2.9-3.5 2.6-4.5 5-0.6 0.5-1.6 0-1-0.6"/>
  <path class="cls-7" d="m76.6 116.1c0.6 3.4-4.6 4.9-2.5 8.4 1.6 2.5 7.8 5.9 8.4 7.6"/>
  <path class="cls-7" d="m79.1 114.4 1 0.6"/>
  <path class="cls-7" d="m82.6 115.5 1.5 0.6"/>
  <path class="cls-7" d="m85.5 117.6 0.9 0.8"/>
  <path class="cls-7" d="m82.9 107.6c-1.3 0.8-2.8 0.5-4.2 2"/>
  <path class="cls-7" d="m77.9 108.6c0.6-1 3.7-2.2 4.7-3.1"/>
  <path class="cls-0" d="m82 113.4c-2.9-1.5-7-5-9.5-6.4-1.1-0.1-3.1-1.9-3.4-1.9"/>
  <path class="cls-7" d="m65.9 107.1c1 1.8 3.7 2.3 5.2 3l4.8 2.9 0.7 1.4"/>
  <path class="cls-7" d="m75.5 111.6 0.9 0.5"/>
  <path class="cls-7" d="m71.9 109.1 1.5 0.9"/>
  <path class="cls-7" d="m67.6 106.9 1.5 0.7"/>
  <path class="cls-0" d="m59.6 120.4c6.9-2 7.3-1.9 8.3-4.3 0.5-1.1 1.1-1.2 2.1-1.2l2.9-1.5"/>
  <path class="cls-7" d="m70.6 115.6 2.9-1.2"/>
  <path class="cls-0" d="m63.6 131.5c5.3-1.9 3-4 4.8-5.6 0.7-0.7 3.1-0.9 4.2-1.5"/>
  <path class="cls-7" d="m70.1 123.4 1.4-0.3 0.6-0.7"/>
  <path class="cls-7" d="m76.1 123 0.3 0.4"/>
  <path class="cls-7" d="m76.5 121.5 0.4-1.1"/>
  <path class="cls-7" d="m78.4 118.1 0.3-1.1"/>
  <path class="cls-0" d="m85.9 129c-1.3-1.9-8.8-4.4-7.5-7.5 2.2-3.4 1.2-4.4 3.1-3.9l4.4 2"/>
  <path class="cls-7" d="m82.9 114.6 5.1 2.9"/>
  <path class="cls-7" d="m47.5 84.1c1.5 1.3 6 1.8 8.1 3.5 2.5 1.8 4.4 6.8 7.8 6.8"/>
  <path class="cls-7" d="m52.2 82c2.7 1.6 7.7 2.5 8.7 4.6 0.7 1.9 3 4.5 6.5 5.5"/>
  <path class="cls-7" d="m65 93.5 0.7 0.1"/>
  <path class="cls-7" d="m62.4 91.6 1.2 0.9"/>
  <path class="cls-7" d="m59.9 89.1 1 1.3"/>
  <path class="cls-7" d="m57.4 86.9 1.2 0.7"/>
  <path class="cls-7" d="m53.9 84.9 1.7 0.7"/>
  <path class="cls-7" d="m50.4 83.4 2 0.7"/>
  <path class="cls-7" d="m82.2 70.6c-0.2-1 1.4-1.7 2.2-1.5"/>
  <path class="cls-0" d="m76.6 76.4c-1.6-1.8-0.5-4.4 1.5-2.9 1.8-1.1 2.4-0.5 3.4 0.4 1.4 0.5 2.9-0.5 4.1-1.5 1.5-1.4 1.9-4.3-0.6-5.8"/>
  <path class="cls-7" d="m78.4 76.6 1.1-0.5"/>
  <path class="cls-0" d="m167.6 82.5c-0.7-2.1-3-1.9-3 0.9l1.8 1.2-1.8 1.5c1.1 0.3 2.5 0.5 3 2.3"/>
  <path class="cls-0" d="m169.5 81.4c-0.1-1.3 1.2-0.5 1.1 1.1 3.5 1 1.3 3.1 0 3.9-1.5 0.2-1.5 2-1.1 1.6"/>
  <path class="cls-7" d="m170.1 88.1c-0.5-0.5-1.2 2.3 1 1 0.4-1.7-0.7-2.2 0.3-1.7l1.1 1.2c1.6-0.5 3.1 2.9-1.1 2.9"/>
  <path class="cls-0" d="m165.5 88.6c-1.4-2-4.6 0.5-2.4 1.8l1.3 0.2c-0.9 0.5-2.5 0.5-2.8 2.4"/>
  <path class="cls-7" d="m167.9 86.4c0.1 4.2-3 5.1-2.8 6.1"/>
  <path class="cls-0" d="m165.5 91.5c2.5 1.4 3.5-2.1 4.4-0.8 0 1.4-0.9 3.2-3 3.2-3.5-0.5-6.4 4.1-1.8 6.5"/>
  <path class="cls-7" d="m163.5 93c-1 1.1-2.1 4.5 0.9 7.4"/>
  <path class="cls-0" d="m161.5 95.6c-1.5 1.9 0.6 3.8 0.7 4"/>
  <path class="cls-0" d="m161.4 97.1c-1.3 1 0.7 2.3 0.5 3-0.4 1.5 0.7 1.3 1.5 2l2.2 3.3"/>
  <path class="cls-0" d="m163.6 107c-1.1-3.6-3.2-1.9-4.1-2.9-1.4-0.7-0.9-3.1 0-2.7"/>
  <path class="cls-0" d="m154.5 104.9c-1.1 0.1-0.5-2.4 2.1-2 1.6-0.4-0.1-3.9 2.5-2.9"/>
  <path class="cls-7" d="m163 102.1c1.2-0.6 3.1-1.5 4.6-1"/>
  <path class="cls-7" d="m113.6 114.4c4.3-3 10-4.3 10.8-7 0.5-0.8-0.5-4-0.8-3.8"/>
  <path class="cls-7" d="m115.7 117.6c0.7-2.2 8.9-3.6 10.8-7"/>
  <path class="cls-7" d="m127.5 107.9-2 1"/>
  <path class="cls-7" d="m123.6 110.9-1.2 0.6"/>
  <path class="cls-7" d="m120 113.1-1 0.5"/>
  <path class="cls-7" d="m116.9 115-1.4 0.6"/>
  <path class="cls-0" d="m127.5 93.6c1.9 1.4 3.9 1.9 7-1 2-2.1 0.1-3.1 2.9-4.7l2.6-1.5"/>
  <path class="cls-7" d="m138.9 88.6 0.2-0.2"/>
  <path class="cls-0" d="m134.4 97.5c-0.8-2.5 4.6-1.9 4.1-6-0.4-1.6 3.7-3 5.1-3.9"/>
  <path class="cls-7" d="m140.6 87.6 0.9-0.7"/>
  <path class="cls-7" d="m136.9 93.6-2.4 1.5"/>
  <path class="cls-7" d="m131.6 95.6 2-1"/>
  <path class="cls-7" d="m136.9 91.6c1-0.5 0-1.7 0-1.7"/>
  <path class="cls-7" d="m127.4 109.6c1.2-0.7 2.2-2 4.2-0.7"/>
  <path class="cls-0" d="m6.4 107.9c-0.2-1.4 2.2-4.5 3.8-3.3 2.2-1.5 5.2 0.8 6.7 3.4 1 1.6 0 4 1.5 6 1.1 1.5 0 2.1 0 2.1"/>
  <path class="cls-0" d="m12.9 113.9c2.1 1.5 2.8 5.1 5.7 4.7 2-0.2 2.9-3.1 3.5-3.1v15.9l1.9 0.1 0.4-15.9 4 12.3 1.1 0.2 0.6-0.5-3.7-12.2-4.3 0.5 9.9-2.8v-1l-1.6-0.5-8 2.4-0.4-0.4 1.6-0.2 0.3-5.5-3.5 4.6c-0.8-0.4-1.5-0.4-2.3 0"/>
  <path class="cls-1" d="m24.4 115.5 2.2-0.4"/>
  <path class="cls-0" d="m19.5 112.9-1.4 1"/>
  <path class="cls-0" d="m20.5 111.6c0.9-0.5 1.4 0.5 1.4 0.8"/>
  <path class="cls-0" d="m20.5 107.6c-0.6 2.5 2.5 0 3.4 0.4 0.7 0.4-0.7 1.4-0.4 1.5 1.5 1.4-0.4 2-1.1 2.4"/>
  <path class="cls-7" d="m18.2 101.9 3.4 1"/>
  <path class="cls-0" d="m18.6 102.6 3.3 0.8v3.2"/>
  <path class="cls-0" d="m20.4 101.1 3.5 2v4.3"/>
  <path class="cls-7" d="m22 100.9 4.1 2.2v9.8"/>
  <path class="cls-0" d="m24.1 101.4 3.3 1.6v9.6"/>
  <path class="cls-7" d="m26.5 100.4 3.9 1.1 0.1 9.9"/>
  <path class="cls-0" d="m26.6 100.9v-0.5l4 1 0.3 9.2"/>
  <path class="cls-0" d="m31.1 102.5c2-0.4 2.5 5.1-0.2 4l0.2-3.5"/>
  <path class="cls-7" d="m9 105.4c-2.3 1.2-6.8 7.1-7.1 10.2l0.5 1.5"/>
  <path class="cls-0" d="m2.5 117.6-0.1-0.2c-1.7 3.6-0.8 5 0.8 7.6l1.8 3.4 0.1 1c-0.7 1.5-0.5 2.1 0.5 3.2-0.6 1-0.6 2-0.9 4.9"/>
  <path class="cls-0" d="m4.4 137.6c1 1.4 2.6 1.8 2.8 1l1.5-5.1c0.9-1 0.8-2.5 0.7-4.8"/>
  <path class="cls-0" d="m10.4 129 1.5 1.5 1.6 1"/>
  <path class="cls-0" d="m10.6 131.5c-0.7 1.4 0.8 3 4.8 2.9l-1.3 5.2c0.5 1-3.1 0.5-2.7-0.5-0.5-2.9-0.4-4.2-0.3-5.5"/>
  <path class="cls-0" d="m11.4 139.6-0.4 4.4c0.1 1 2.9 1 2.9 0.4 0.7 0.5 4.3 0.2 4.5-0.8-0.5-2.5-2.8-0.6-4-2l0.1-0.7c0.6-0.3 0.5-1.3-0.1-1"/>
  <path class="cls-0" d="m4.4 137.4c-0.5-0.3-0.5 0-0.4 0l-0.1 0.2-0.3 4.4c0.3 1.5 2.4 1.4 2.8 0.9 0.5 0.5 4-0.4 3.6-1.8-1-1.7-1.8-0.6-2.9-0.6l0.3-0.6-0.3-1.2"/>
  <path class="cls-7" d="m5.5 130.5 2 0.4"/>
  <path class="cls-0" d="m5.5 133c1.4 0.4 2.6 0.7 3.4 0.1"/>
  <path class="cls-0" d="m2.5 117.6c3.1 0 6.5 2 8.5 1.9 0.4 0.6-0.4 1.4 0.5 2.5l4.4 7.4"/>
  <path class="cls-0" d="m11.4 119.5c1.1-1 0.2-2 0.2-2l2-2.4"/>
  <path class="cls-7" d="m10 117 2.4-0.9"/>
  <path class="cls-7" d="m12.5 111.6c0.4-1.2 1-2.6 1.9-2.7"/>
  <path class="cls-0" d="m4.9 123c0.5 1 2 1.4 2.2 1.6l2.9 4-0.6 0.5 1.2 1.3-0.1 2.6"/>
  <path class="cls-7" d="m5.5 122.9c0.9 0.7 1.9 0.7 2.6 0.7"/>
  <path class="cls-7" d="m5.6 120.1 2.6 0.5-0.2 2.5"/>
  <path class="cls-7" d="m5.4 117.9 0.1 1.1"/>
  <path class="cls-7" d="m8 119 0.1 0.6"/>
  <path class="cls-0" d="m2.6 119.4 0.4 3.1"/>
  <path class="cls-7" d="m22.5 115.9-5.9 16.2"/>
  <path class="cls-0" d="m16.5 128 1.1 0.1 4.5-11.6"/>
  <path class="cls-0" d="m23.4 131.5v12.1c0.2 1 0.2 0 0.2 0l0.1-12.2"/>
  <path class="cls-0" d="m29.5 128 3.1 11.6c0.8 0.8 0-0.1 0 0l-3.2-11.5"/>
  <path class="cls-7" d="m23.6 127.6 0.4 0.3"/>
  <path class="cls-0" d="m15.6 99.1c3.9-3.2 6.5-1.5 1.3 1.5-4.9 2.4-10.5 1.9-6.9-0.7"/>
  <path class="cls-0" d="m10.7 98.9c-0.1-2.3 1.3-3.8 2.7-3.3 2-1.1 2.3-0.7 3.7 1.9"/>
  <path class="cls-7" d="m11.4 100c2.2 0.1 5-1 5.5-1.5"/>
  <path class="cls-7" d="m14.4 104.1 1.2 1.4 1 0.6 0.3-0.6 0.2-2.9"/>
</svg>